<?xml version="1.0" encoding="UTF-8" standalone="no"?>
<svg
   xmlns:dc="http://purl.org/dc/elements/1.1/"
   xmlns:cc="http://creativecommons.org/ns#"
   xmlns:rdf="http://www.w3.org/1999/02/22-rdf-syntax-ns#"
   xmlns:svg="http://www.w3.org/2000/svg"
   xmlns="http://www.w3.org/2000/svg"
   xmlns:sodipodi="http://sodipodi.sourceforge.net/DTD/sodipodi-0.dtd"
   xmlns:inkscape="http://www.inkscape.org/namespaces/inkscape"
   viewBox="190 250 279.72 157.15727"
   height="157.15727"
   width="279.72"
   xml:space="preserve"
   id="svg2"
   version="1.1"
   inkscape:version="0.91 r13725"
   sodipodi:docname="horns.svg"><sodipodi:namedview
     borderopacity="1"
     objecttolerance="10000"
     gridtolerance="10000"
     guidetolerance="10000"
     inkscape:pageopacity="0"
     inkscape:pageshadow="2"
     inkscape:window-width="1120"
     inkscape:window-height="852"
     id="namedview9"
     showgrid="true"
     fit-margin-top="0"
     fit-margin-left="0"
     fit-margin-right="0"
     fit-margin-bottom="0"
     inkscape:zoom="2.0025263"
     inkscape:cx="133.35823"
     inkscape:cy="76.902005"
     inkscape:window-x="0"
     inkscape:window-y="0"
     inkscape:window-maximized="0"
     inkscape:current-layer="svg2" /><metadata
     id="metadata8"><rdf:RDF><cc:Work
         rdf:about=""><dc:format>image/svg+xml</dc:format><dc:type
           rdf:resource="http://purl.org/dc/dcmitype/StillImage" /><dc:title></dc:title></cc:Work></rdf:RDF></metadata><defs
     id="defs6" /><g
     transform="matrix(1.3333333,0,0,-1.3333333,-3.4733285,661.91199)"
     id="g10"><g
       transform="scale(0.1,0.1)"
       id="g12"><path
         id="path2210"
         style="fill:#000000;fill-opacity:1;fill-rule:nonzero;stroke:none"
         d="m 2545.31,2485.78 c 4.74,27.95 11.96,64.36 22.58,105.42 l 0.03,-0.02 c 0,0 12.08,-83.68 132.08,-126.18 -51.02,61.46 -85.79,50.76 -117.9,176.63 l -0.05,-0.11 c 4.87,15.98 10.24,32.38 16.15,49.03 4.62,-18.28 28.15,-84.95 131.05,-121.4 -49.32,59.42 -83.46,51.42 -114.68,164.53 6.23,15.35 12.96,30.77 20.19,46.13 4.04,-16.86 26.59,-85.26 131.28,-122.34 -48.46,58.38 -82.27,51.74 -113.05,158.82 76.47,144.06 201.45,273.05 403.96,273.05 458.65,0 492,-344.68 492,-550.37 0,-205.69 -80.61,-480.88 -305.76,-617.08 -30.58,-19.46 -150.1,-25.02 -72.27,80.61 77.83,105.62 180.68,291.86 180.68,439.18 0,50.04 -33.36,336.34 -222.38,336.34 0,0 -184.08,65.74 -286.22,-511.3 -5.45,-30.73 -33.32,-52.19 -64.44,-49.66 -74.71,6.06 -163.74,36.16 -213.88,133.51 -21.37,41.49 -27.18,89.2 -19.37,135.21"
         inkscape:connector-curvature="0" /><path
         id="path2212"
         style="fill:#000000;fill-opacity:1;fill-rule:nonzero;stroke:none"
         d="m 2454.69,2485.78 c -4.74,27.95 -11.96,64.36 -22.58,105.42 l -0.03,-0.02 c 0,0 -12.08,-83.68 -132.08,-126.18 51.02,61.46 85.79,50.76 117.9,176.63 l 0.05,-0.11 c -4.87,15.98 -10.24,32.38 -16.15,49.03 -4.62,-18.28 -28.15,-84.95 -131.05,-121.4 49.32,59.42 83.46,51.42 114.68,164.53 -6.23,15.35 -12.96,30.77 -20.19,46.13 -4.04,-16.86 -26.59,-85.26 -131.28,-122.34 48.46,58.38 82.27,51.74 113.05,158.82 -76.47,144.06 -201.45,273.05 -403.96,273.05 -458.65,0 -492,-344.68 -492,-550.37 0,-205.69 80.61,-480.88 305.76,-617.08 30.58,-19.46 150.1,-25.02 72.27,80.61 -77.83,105.62 -180.68,291.86 -180.68,439.18 0,50.04 33.36,336.34 222.38,336.34 0,0 184.08,65.74 286.22,-511.3 5.45,-30.73 33.32,-52.19 64.44,-49.66 74.71,6.06 163.74,36.16 213.88,133.51 21.37,41.49 27.18,89.2 19.37,135.21"
         inkscape:connector-curvature="0" /></g></g></svg>
